<svg xmlns="http://www.w3.org/2000/svg" viewBox="0 0 206.39 36.77"><defs><style>.cls-1{fill:#71bbc4;}.cls-2{fill:#fff;}</style></defs><g id="Layer_2" data-name="Layer 2"><g id="peri"><polygon class="cls-1" points="204.34 13.58 206.4 18.38 204.34 23.19 199.61 23.19 194.8 18.39 194.8 18.38 199.6 13.58 204.34 13.58"/><polygon class="cls-1" points="201.01 5.39 202.95 10.22 199.6 13.58 192.81 13.58 192.8 13.58 192.8 6.79 196.16 3.43 201.01 5.39"/><polygon class="cls-1" points="202.95 26.54 201.01 31.39 196.16 33.33 192.8 29.98 192.8 23.19 192.81 23.19 199.61 23.19 202.95 26.54"/><polygon class="cls-1" points="194.8 18.39 192.81 20.38 192.81 16.41 194.8 18.39"/><polygon class="cls-1" points="192.81 20.38 192.81 23.19 192.8 23.19 189.99 23.19 186.01 23.19 183.19 23.19 183.19 20.38 183.19 16.41 183.19 13.58 186.01 13.58 189.99 13.58 192.8 13.58 192.81 13.58 192.81 16.41 192.81 20.38"/><polygon class="cls-1" points="192.8 29.98 192.8 34.72 188 36.77 183.19 34.72 183.19 29.99 188 25.18 192.8 29.98"/><polygon class="cls-1" points="192.8 2.04 192.8 6.79 188 11.58 183.19 6.77 183.19 2.04 188 0 192.8 2.04"/><polygon class="cls-1" points="189.99 23.19 188 25.18 186.01 23.19 189.99 23.19"/><polygon class="cls-1" points="189.99 13.58 186.01 13.58 188 11.6 189.99 13.58"/><polygon class="cls-1" points="183.19 23.19 183.19 29.99 179.84 33.33 174.99 31.39 173.05 26.54 176.39 23.19 183.19 23.19"/><polygon class="cls-1" points="183.19 16.41 183.19 20.38 181.2 18.39 183.19 16.41"/><polygon class="cls-1" points="183.19 6.77 183.19 13.58 176.41 13.58 173.05 10.22 174.99 5.39 179.84 3.43 183.19 6.77"/><polygon class="cls-1" points="181.2 18.38 181.2 18.39 176.39 23.19 171.66 23.19 169.61 18.38 171.66 13.58 176.41 13.58 181.2 18.38"/><path class="cls-2" d="M23.62,31.53H19L16.9,25.42H6.6L4.51,31.53H0L9.1,5.42h5.41Zm-15.86-10h7.91l-4-11.45Z"/><path class="cls-2" d="M33.5,5.42h4.44V27.69H51v3.84H33.5Z"/><path class="cls-2" d="M82.86,31.53H78.2l-2-6.11H65.85l-2.09,6.11H59.25l9.1-26.11h5.41ZM67,21.57h7.91L71,10.12Z"/><path class="cls-2" d="M112.9,25.83a5.38,5.38,0,0,1-5.71,5.7H92.75V5.42h14.44a6.16,6.16,0,0,1,2.31.41A5.26,5.26,0,0,1,111.31,7a5.08,5.08,0,0,1,1.18,1.8,6.53,6.53,0,0,1,.41,2.34Zm-4.44-14.48a2.13,2.13,0,0,0-.54-1.53,2,2,0,0,0-1.52-.56H97.19V27.69h9.21a2.08,2.08,0,0,0,1.52-.54,2.05,2.05,0,0,0,.54-1.51Z"/><path class="cls-2" d="M125.21,5.42h4.44V31.53h-4.44Z"/><path class="cls-2" d="M146.4,13.55v18H142V5.42h4.14l11.57,18v-18h4.44V31.53H158Z"/></g></g></svg>